<svg id="Capa_1" data-name="Capa 1" xmlns="http://www.w3.org/2000/svg" xmlns:xlink="http://www.w3.org/1999/xlink" viewBox="0 0 97.99 103.7"><defs><style>.cls-1{fill:#2a596e;}.cls-2{stroke-miterlimit:10;stroke-width:1.5px;fill:url(#linear-gradient);stroke:url(#linear-gradient-2);}.cls-3{fill:#fff;}</style><linearGradient id="linear-gradient" x1="78.13" y1="14.51" x2="33.94" y2="91.05" gradientUnits="userSpaceOnUse"><stop offset="0" stop-color="#fff"/><stop offset="0.16" stop-color="#c4e5f1"/><stop offset="0.31" stop-color="#91cee5"/><stop offset="0.46" stop-color="#67bcdb"/><stop offset="0.61" stop-color="#47aed3"/><stop offset="0.75" stop-color="#30a3cd"/><stop offset="0.89" stop-color="#229dca"/><stop offset="1" stop-color="#1d9bc9"/></linearGradient><linearGradient id="linear-gradient-2" x1="50.32" y1="95.23" x2="50.32" y2="0.2" gradientUnits="userSpaceOnUse"><stop offset="0" stop-color="#fff" stop-opacity="0"/><stop offset="0.04" stop-color="#dceff7" stop-opacity="0.16"/><stop offset="0.11" stop-color="#afdcec" stop-opacity="0.35"/><stop offset="0.18" stop-color="#88cae2" stop-opacity="0.53"/><stop offset="0.26" stop-color="#66bbdb" stop-opacity="0.68"/><stop offset="0.34" stop-color="#4bb0d4" stop-opacity="0.79"/><stop offset="0.44" stop-color="#37a6cf" stop-opacity="0.89"/><stop offset="0.55" stop-color="#28a0cc" stop-opacity="0.95"/><stop offset="0.7" stop-color="#1f9cca" stop-opacity="0.99"/><stop offset="1" stop-color="#1d9bc9"/></linearGradient></defs><title>isotipo</title><path class="cls-1" d="M88,71.68H98s-10.94,32-47.86,32C27.06,103.7,0,85.29,0,52.93A50.6,50.6,0,0,1,50.54,1.83c28.69-.05,44,24.15,44,24.15l-11.75.43s-11.32-16-31.37-15.34C24.47,12,9,30.72,8.73,52.89,8.55,72,24.61,93.26,48.33,94.32,78.47,95.67,88,71.68,88,71.68Z"/><path class="cls-2" d="M72.23,68.24c3.59-17.38-8.36-37.3-14.9-51.75-2.61-5.78-.55-14.31-.55-14.31a87.17,87.17,0,0,0-10,9.4C36.3,23.3,33.44,34.1,33.36,42.28a31.27,31.27,0,0,0,3.4,15l.47,1.14-.11-.1.11.27-1-.89A44.28,44.28,0,0,1,30.46,36.4a31.72,31.72,0,0,1,1-8.48c-12,15.7-15.73,27.79-15.73,36.74.08,14,9.23,20.24,9.83,20.67s1.33,1.17,2.29,2a39.93,39.93,0,0,0,21,7.07c10.19.45,18-2,23.91-5.41,29.77-27.2-4.07-55.4-4.07-55.4C79.31,56.11,72.23,68.24,72.23,68.24Z"/><path class="cls-3" d="M54,9.75c0,10.35,4.23,17.13,8.89,25.88,4.31,8.08,5.18,26.19,5.18,26.19-1.14-9-5-18-9.06-26-1.94-4.05-4.53-8.41-5.66-12.62C52.07,18.81,54,9.75,54,9.75Z"/><path class="cls-3" d="M82,60C80.2,53.37,73.9,43.39,73.9,43.39c1.8,6,4.43,11,6.2,16.57,2,6.41,1.72,11-2.16,16.58C79.28,75.39,84.07,67.91,82,60Z"/><path class="cls-3" d="M28.48,33.42S18.32,50.34,40.13,67.11C42.08,68.62,25.25,58.35,28.48,33.42Z"/></svg>