<?xml version="1.0" standalone="no"?>
<!DOCTYPE svg PUBLIC "-//W3C//DTD SVG 20010904//EN"
 "http://www.w3.org/TR/2001/REC-SVG-20010904/DTD/svg10.dtd">
<svg version="1.0" xmlns="http://www.w3.org/2000/svg"
 width="832.000000pt" height="832.000000pt" viewBox="0 0 832.000000 832.000000"
 preserveAspectRatio="xMidYMid meet">
<metadata>
Created by potrace 1.14, written by Peter Selinger 2001-2017
</metadata>
<g transform="translate(0.000000,832.000000) scale(0.100000,-0.100000)"
fill="#000000" stroke="none">
<path d="M4835 8264 c-118 -101 -136 -113 -175 -108 -132 15 -463 20 -620 10
-89 -6 -184 -15 -217 -20 -16 -2 -53 -7 -83 -11 -30 -3 -77 -10 -105 -15 -27
-6 -66 -12 -85 -15 -51 -7 -272 -57 -300 -68 -8 -3 -51 -15 -95 -27 -44 -11
-89 -24 -100 -29 -20 -8 -171 -60 -190 -65 -5 -2 -21 -8 -35 -13 -14 -6 -47
-20 -75 -31 -109 -44 -343 -156 -457 -220 -60 -34 -243 -145 -248 -151 -3 -3
-32 -24 -65 -46 -33 -22 -64 -44 -70 -48 -5 -4 -33 -25 -61 -46 -49 -36 -136
-104 -160 -126 -6 -5 -40 -35 -75 -65 -73 -63 -306 -293 -365 -360 -247 -284
-422 -540 -586 -865 -52 -101 -118 -243 -118 -252 0 -5 -9 -25 -20 -46 -11
-20 -17 -37 -14 -37 4 0 1 -7 -6 -15 -7 -8 -9 -15 -5 -15 4 0 3 -6 -3 -12 -37
-45 -178 -547 -206 -733 -4 -22 -8 -47 -11 -55 -4 -15 -9 -48 -20 -135 -3 -27
-8 -64 -11 -82 -14 -107 -19 -230 -19 -478 0 -287 7 -404 31 -570 3 -22 7 -53
9 -70 3 -31 12 -92 21 -135 2 -14 7 -36 9 -50 4 -21 15 -72 41 -190 3 -14 7
-29 8 -35 1 -5 5 -16 9 -22 5 -7 6 -13 3 -13 -2 0 0 -15 5 -32 6 -18 12 -40
14 -48 14 -56 90 -285 115 -345 90 -218 183 -416 246 -522 11 -17 34 -57 53
-90 99 -170 297 -436 446 -599 86 -95 237 -243 346 -339 64 -57 234 -191 304
-240 39 -27 72 -52 75 -55 11 -11 251 -160 260 -160 4 0 10 -3 12 -7 7 -18
414 -220 523 -260 22 -8 49 -19 60 -24 30 -14 216 -80 250 -89 17 -5 62 -18
100 -30 39 -11 77 -23 85 -24 8 -2 33 -9 55 -14 22 -6 51 -13 65 -16 14 -3 43
-10 65 -15 22 -5 54 -12 70 -15 17 -2 55 -9 85 -15 30 -6 73 -13 95 -16 23 -3
51 -7 62 -9 23 -5 84 -12 193 -22 128 -13 730 -7 730 6 0 3 17 5 38 6 65 1
260 27 362 49 14 3 40 8 59 11 32 5 116 24 201 44 19 4 71 18 115 30 44 12 85
23 90 25 6 1 18 5 28 8 22 9 46 16 52 17 6 0 107 38 145 53 14 6 27 11 30 12
74 18 443 193 552 262 21 12 42 23 48 23 5 0 10 4 10 8 0 5 16 16 36 25 19 10
40 22 47 27 25 21 88 60 97 60 6 0 10 3 10 8 0 4 17 18 38 32 54 36 166 122
170 132 2 4 9 8 15 8 7 0 36 22 64 48 29 26 74 65 99 87 54 46 314 302 314
309 0 3 10 16 23 29 113 117 417 523 417 556 0 6 5 11 10 11 6 0 10 7 10 15 0
8 5 15 10 15 6 0 10 4 10 8 0 5 21 45 48 89 26 44 63 111 82 149 19 38 38 71
41 74 3 3 12 22 18 43 7 20 17 37 22 37 5 0 9 5 9 10 0 6 20 58 45 116 25 57
45 107 45 109 0 3 -180 5 -399 5 l-400 0 -30 -60 c-17 -33 -27 -60 -23 -60 4
0 2 -4 -4 -8 -6 -4 -20 -25 -32 -47 -74 -145 -250 -399 -382 -550 -44 -51
-285 -290 -335 -333 -45 -38 -69 -43 -35 -7 13 14 19 25 14 25 -14 0 -39 -43
-35 -60 2 -8 0 -12 -5 -8 -4 5 -13 -1 -21 -12 -15 -21 -50 -29 -37 -8 4 6 3 8
-4 5 -5 -4 -8 -16 -5 -27 3 -12 0 -20 -8 -20 -7 0 -9 3 -6 7 4 3 2 12 -4 19
-8 9 -5 18 10 33 24 24 32 26 29 10 -2 -6 4 -14 12 -16 9 -3 11 -1 5 4 -20 16
-15 43 12 70 16 16 44 49 62 76 19 26 42 47 50 46 12 0 11 -3 -4 -10 -16 -7
-14 -8 10 -3 l30 6 -24 -26 c-33 -36 -23 -39 12 -4 15 15 23 28 17 28 -6 0 -9
4 -6 9 3 5 -2 8 -11 7 -9 0 -18 4 -20 10 -5 16 37 10 48 -7 5 -8 9 -9 9 -4 0
18 -17 38 -27 32 -5 -3 -10 1 -10 9 0 9 6 13 15 9 10 -3 12 0 8 10 -3 9 0 15
10 15 9 0 14 -8 13 -18 -1 -9 -1 -24 0 -32 1 -13 3 -13 10 -1 5 8 7 21 3 29
-3 9 -1 13 5 9 16 -10 33 16 28 42 -3 17 0 21 11 17 10 -4 13 -2 8 6 -5 8 -2
9 10 5 14 -6 15 -3 6 13 -6 11 -13 20 -16 20 -3 0 -2 -4 1 -10 3 -5 0 -8 -7
-7 -7 2 -10 2 -6 0 4 -2 -7 -18 -25 -35 -18 -17 -25 -26 -16 -19 15 10 29 6
29 -9 0 -10 -39 -9 -46 1 -3 6 1 18 10 27 48 53 56 63 56 77 0 8 6 15 13 15 8
0 14 7 15 15 1 8 3 22 4 30 1 8 5 12 10 9 4 -3 11 3 15 13 4 10 17 35 30 56
13 20 20 37 16 37 -3 0 3 10 15 22 11 13 21 25 20 28 -1 15 37 80 46 77 14 -5
16 -37 3 -37 -7 0 -5 -5 3 -10 8 -5 10 -10 4 -10 -5 0 -15 5 -21 11 -9 9 -12
7 -10 -10 1 -15 6 -20 17 -16 8 3 0 -6 -18 -21 -18 -14 -30 -30 -26 -35 3 -5
0 -8 -7 -7 -6 2 -14 -4 -16 -12 -4 -12 -3 -12 5 -1 7 9 12 10 16 2 6 -10 -6
-15 -26 -12 -5 0 -8 -3 -8 -8 0 -5 3 -11 8 -14 4 -2 2 -2 -5 -1 -6 2 -10 -5
-8 -15 2 -10 -1 -24 -6 -32 -7 -11 -9 -11 -9 -1 0 7 -5 10 -11 6 -8 -5 -8 -9
1 -14 8 -5 7 -9 -5 -13 -10 -5 -14 -3 -9 5 4 7 3 8 -5 4 -6 -4 -9 -11 -6 -16
3 -5 0 -20 -7 -35 -8 -19 -14 -22 -20 -13 -7 10 -8 9 -5 -2 2 -8 10 -14 17
-12 8 2 10 -3 6 -13 -3 -10 -2 -13 5 -10 5 4 7 16 3 28 -3 12 -3 19 1 15 9 -8
42 32 38 44 -2 4 6 12 18 18 16 9 18 14 8 26 -9 11 -8 14 5 14 9 0 16 6 16 14
0 8 5 16 11 18 5 2 11 10 12 19 2 8 13 29 26 47 12 18 24 38 25 45 1 7 7 22
14 33 6 12 8 24 5 28 -3 3 0 6 8 6 11 0 11 2 -1 10 -13 8 -12 10 4 10 15 0 17
3 9 11 -17 17 -34 1 -29 -26 4 -22 2 -23 -14 -12 -11 6 -15 14 -9 17 5 4 7 15
3 26 -5 16 -4 16 5 4 11 -15 12 -14 16 20 1 11 4 23 5 28 1 4 2 10 1 14 0 5 4
8 10 8 5 0 7 6 3 13 -4 6 1 4 12 -5 12 -10 25 -14 33 -9 7 5 12 10 11 12 -2 6
10 41 21 63 7 13 7 16 0 11 -12 -7 -12 -8 -16 60 -1 28 0 43 3 35 3 -8 10 -18
16 -22 7 -5 8 -11 1 -15 -16 -12 -17 -43 -2 -43 7 0 14 6 15 13 3 35 8 53 16
59 5 3 11 21 13 39 2 18 7 35 11 38 4 4 8 11 9 16 1 6 5 23 8 38 5 19 3 27 -6
27 -8 0 -7 5 5 13 9 7 18 24 20 38 1 13 6 31 11 39 6 10 4 12 -11 7 -15 -6
-14 -3 5 11 20 16 21 20 7 25 -9 4 -16 2 -16 -3 0 -6 -8 -10 -17 -10 -15 0
-15 2 2 14 11 8 24 12 31 9 7 -3 10 6 8 23 -1 16 0 33 4 39 8 12 9 22 18 105
3 36 8 68 11 73 2 4 -4 7 -14 7 -15 0 -16 2 -3 10 12 7 15 34 16 127 0 74 -3
121 -10 126 -8 5 -8 9 -1 15 16 11 10 50 -11 75 -14 15 -14 18 -2 9 15 -12 16
-9 12 30 -2 24 -5 53 -6 66 -1 12 -5 22 -8 22 -4 0 -7 21 -10 93 -1 9 -4 16
-8 13 -4 -2 -7 12 -6 32 0 21 -3 45 -8 54 -4 9 -10 34 -13 55 -3 21 -10 49
-15 63 -5 14 -18 59 -30 100 -12 41 -28 90 -36 108 -9 18 -17 41 -19 52 -2 10
-9 29 -16 42 -7 13 -12 24 -12 25 4 10 -12 43 -20 43 -6 0 -7 3 -4 7 4 3 -1
15 -10 26 -10 11 -12 17 -5 13 12 -7 -11 54 -32 83 -6 7 -11 20 -12 28 -2 8
-10 23 -18 32 -9 10 -16 24 -16 33 0 8 -8 26 -19 39 -10 13 -19 26 -19 29 -1
14 -26 60 -34 60 -4 0 -7 3 -6 8 3 11 -35 82 -44 82 -4 0 -8 6 -8 13 -1 21
-66 118 -75 110 -4 -5 -5 -2 0 6 4 7 4 16 -1 20 -5 3 -27 33 -49 66 -22 33
-43 62 -47 63 -5 2 -8 10 -8 18 0 8 -7 17 -15 20 -8 4 -15 11 -15 18 0 6 -16
29 -35 50 -19 22 -37 48 -41 58 -3 10 -9 18 -14 18 -5 0 -12 9 -15 20 -3 11
-14 20 -22 20 -9 0 -14 3 -10 6 3 4 -17 34 -46 68 -29 33 -63 74 -77 90 -32
37 -113 127 -166 182 -23 24 -44 40 -48 36 -4 -4 -6 -2 -4 4 3 10 -75 90 -167
169 -25 22 -59 51 -74 65 -16 14 -37 32 -47 40 -11 8 -41 33 -67 54 l-49 40
24 -50 c13 -27 26 -50 31 -52 4 -2 7 -9 7 -16 0 -7 13 -39 29 -72 27 -57 83
-177 101 -219 4 -11 18 -42 30 -70 33 -77 36 -84 73 -180 33 -87 50 -135 52
-145 0 -3 3 -9 7 -15 3 -5 11 -30 17 -55 7 -25 16 -54 20 -65 10 -22 31 -92
35 -115 2 -8 6 -22 9 -30 6 -14 24 -82 33 -122 2 -10 7 -28 10 -40 3 -13 7
-30 9 -38 2 -8 4 -15 5 -15 1 0 3 -9 4 -20 2 -11 8 -46 15 -77 7 -32 14 -70
16 -85 2 -16 4 -28 5 -28 1 0 3 -9 5 -20 23 -163 24 -174 26 -212 1 -18 7 -33
12 -33 5 0 5 -6 -2 -13 -6 -8 -8 -16 -5 -19 11 -12 20 -340 10 -357 -4 -5 2
-14 11 -20 15 -9 15 -10 2 -11 -13 0 -15 -12 -14 -66 1 -36 -2 -67 -5 -69 -7
-5 -7 -6 -12 80 -3 34 -8 66 -12 73 -4 7 -2 12 5 12 7 0 4 7 -7 16 -10 8 -14
13 -7 10 11 -6 11 13 -1 104 -3 19 -7 58 -11 85 -10 81 -15 107 -26 126 -7 13
-6 19 1 19 7 0 8 6 1 19 -6 10 -7 21 -4 25 3 3 2 6 -3 6 -6 0 -10 10 -10 23
-1 30 -23 134 -42 192 -5 17 -8 38 -6 48 1 9 -2 17 -7 17 -5 0 -9 9 -9 19 0
11 -5 23 -10 26 -6 4 -8 11 -4 16 3 5 1 24 -5 42 -6 17 -11 34 -11 37 1 3 -9
32 -20 65 -11 33 -21 61 -21 62 0 5 -10 38 -20 61 -5 13 -9 32 -9 42 0 11 -5
20 -12 20 -6 0 -8 3 -5 7 4 3 2 12 -4 20 -6 7 -9 13 -6 13 4 0 -10 44 -29 98
-19 53 -42 117 -51 142 -8 25 -20 51 -25 58 -6 6 -7 12 -3 12 4 0 0 11 -9 25
-9 13 -16 33 -16 45 0 11 -5 20 -11 20 -5 0 -8 3 -5 8 2 4 -6 30 -19 57 -13
28 -24 56 -24 63 -1 6 -5 12 -9 12 -4 0 -8 9 -9 20 -1 11 -15 48 -31 82 -16
35 -36 80 -43 101 -7 20 -17 37 -21 37 -4 0 -8 7 -8 15 0 9 -8 30 -17 48 -9
18 -16 35 -15 40 1 4 -2 7 -6 7 -5 0 -9 6 -9 13 0 13 -53 129 -189 412 -32 66
-58 122 -59 125 0 3 -38 81 -83 173 -45 93 -82 172 -82 178 0 5 -5 9 -10 9 -6
0 -9 3 -8 8 2 4 -13 39 -31 77 -36 74 -104 219 -139 296 -32 70 -64 152 -67
174 -2 11 -8 38 -14 60 -11 46 -21 104 -27 159 l-4 38 53 -5 c30 -4 60 -8 68
-11 8 -3 30 -7 49 -10 170 -24 447 -109 655 -200 100 -44 331 -165 360 -188 5
-4 64 -43 130 -87 120 -79 304 -222 380 -294 168 -160 293 -291 334 -350 47
-67 44 -65 165 -62 61 2 183 7 271 10 171 8 267 11 435 15 58 2 108 5 112 7 7
3 -36 79 -53 93 -3 3 -24 31 -47 62 -160 218 -492 566 -722 757 -36 29 -66 57
-68 62 -2 5 -9 9 -16 9 -6 0 -19 8 -28 18 -19 19 -33 31 -138 108 -41 30 -83
62 -93 70 -9 8 -19 14 -21 14 -3 0 -40 25 -84 55 -44 30 -85 55 -90 55 -6 0
-12 3 -14 8 -4 9 -123 82 -134 82 -4 0 -15 6 -23 14 -22 20 -316 165 -426 211
-49 21 -109 46 -132 56 -24 11 -49 19 -56 19 -8 0 -17 3 -21 7 -3 4 -14 8 -23
9 -10 2 -26 7 -38 13 -22 11 -116 41 -143 46 -9 2 -17 4 -17 5 0 1 -7 3 -15 5
-8 2 -55 15 -105 28 -49 14 -101 27 -115 30 -177 36 -288 57 -308 57 -22 0
-24 3 -18 33 3 17 8 45 10 61 3 15 8 37 11 47 8 26 -4 23 -40 -7z m-991 -941
c-32 -38 -60 -70 -63 -73 -3 -3 -28 -34 -56 -70 -27 -36 -53 -66 -57 -68 -5
-2 -8 -8 -8 -14 0 -5 -6 -15 -12 -23 -28 -29 -48 -56 -48 -64 0 -5 -3 -11 -7
-13 -9 -4 -23 -22 -99 -138 -164 -246 -264 -426 -359 -645 -26 -60 -51 -119
-57 -130 -5 -12 -10 -27 -11 -35 -2 -8 -7 -22 -12 -30 -5 -8 -10 -19 -11 -25
-1 -5 -18 -59 -38 -120 -20 -60 -39 -119 -41 -130 -2 -11 -4 -20 -5 -20 -1 0
-3 -7 -5 -15 -2 -8 -12 -53 -24 -100 -12 -47 -23 -98 -26 -115 -2 -16 -8 -49
-13 -72 -5 -24 -8 -43 -5 -43 2 0 -1 -8 -6 -18 -6 -11 -6 -24 -1 -32 5 -9 5
-19 -1 -26 -5 -7 -12 -32 -14 -56 -23 -259 -24 -569 -1 -597 8 -12 8 -13 -2
-7 -10 6 -11 1 -7 -21 13 -69 15 -104 5 -98 -5 3 -10 14 -10 24 0 10 -3 21 -7
25 -4 3 -8 12 -9 19 -1 7 -5 26 -8 42 -4 17 -9 46 -12 65 -3 19 -10 50 -15 67
-6 18 -8 37 -5 42 4 5 2 12 -3 16 -5 3 -10 13 -10 23 0 9 -2 33 -5 52 -4 19
-8 55 -11 80 -2 25 -5 45 -6 45 -2 0 -5 24 -14 130 -11 119 -13 409 -4 493 18
168 24 217 29 217 1 0 3 14 5 31 2 17 18 89 35 160 18 71 34 136 35 144 2 8 4
16 4 18 1 1 2 5 3 10 1 4 7 27 15 51 12 42 10 68 -5 44 -10 -16 -43 -60 -76
-101 -49 -63 -250 -335 -287 -387 -18 -27 -42 -58 -51 -69 -10 -11 -18 -25
-18 -32 0 -7 -4 -14 -8 -16 -11 -4 -132 -184 -132 -195 0 -5 -10 -19 -22 -33
-13 -14 -30 -38 -38 -55 -8 -16 -17 -32 -20 -35 -9 -9 -55 -84 -70 -115 -8
-16 -18 -32 -21 -35 -10 -9 -73 -125 -70 -129 1 -2 -2 -7 -7 -10 -23 -15 -255
-476 -255 -507 0 -8 -4 -14 -7 -14 -9 0 -56 -121 -52 -132 1 -5 -3 -8 -8 -8
-6 0 -10 -6 -10 -13 0 -8 -7 -28 -16 -46 -9 -17 -17 -37 -18 -44 -2 -7 -9 -25
-15 -42 -7 -16 -14 -35 -15 -42 -1 -7 -5 -16 -9 -19 -4 -4 -7 -16 -7 -26 0
-10 -4 -26 -10 -36 -9 -15 -55 -166 -65 -209 -2 -10 -13 -49 -24 -88 -15 -54
-17 -73 -8 -84 9 -12 9 -13 0 -7 -7 4 -14 2 -14 -3 -1 -6 -2 -14 -3 -18 -1 -5
-6 -28 -10 -53 -5 -25 -11 -54 -13 -65 -3 -11 -6 -33 -8 -50 -2 -16 -4 -30 -5
-30 -3 0 -11 -74 -13 -127 -1 -27 -5 -48 -9 -48 -8 0 -5 -21 6 -39 6 -10 5
-12 -3 -7 -8 5 -10 0 -7 -18 3 -15 0 -26 -6 -26 -6 0 -6 -6 2 -15 10 -12 10
-15 0 -15 -9 0 -9 -4 1 -17 12 -15 12 -16 -1 -8 -13 8 -13 7 -1 -8 10 -13 10
-17 1 -17 -10 0 -10 -3 -1 -14 9 -11 9 -16 0 -21 -8 -6 -7 -10 2 -16 8 -5 9
-9 3 -9 -7 0 -11 -26 -10 -75 1 -62 4 -74 16 -70 13 4 13 4 0 -7 -16 -13 -23
-48 -11 -48 4 0 8 -17 8 -37 1 -121 2 -126 23 -120 11 3 18 1 14 -4 -3 -5 -13
-9 -22 -9 -13 -1 -11 -5 8 -16 14 -8 17 -13 8 -10 -13 4 -15 0 -11 -17 3 -12
5 -32 6 -44 1 -13 8 -23 17 -24 10 0 11 -2 3 -6 -7 -2 -13 -9 -13 -14 0 -6 6
-7 13 -3 10 6 10 4 0 -7 -16 -16 -17 -29 -2 -29 5 0 7 4 4 10 -3 5 0 7 8 4 12
-4 14 2 11 30 -1 20 0 36 5 36 12 0 6 -73 -7 -78 -7 -2 -9 -9 -6 -14 4 -7 2
-8 -4 -4 -15 9 -15 -9 -1 -35 5 -11 15 -17 22 -13 7 4 9 4 5 -1 -4 -4 -1 -13
8 -20 14 -10 14 -13 2 -26 -7 -8 -13 -20 -12 -26 1 -7 2 -20 3 -28 1 -15 36
-21 44 -7 2 4 2 1 1 -5 -2 -7 5 -17 14 -22 9 -6 12 -11 5 -11 -6 0 -15 4 -18
10 -9 14 -34 12 -31 -2 1 -7 7 -26 13 -43 23 -62 26 -70 29 -84 1 -8 6 -17 11
-20 4 -3 9 -15 11 -25 2 -10 10 -25 18 -33 8 -8 11 -19 8 -25 -4 -6 0 -14 7
-19 8 -4 14 -12 14 -16 2 -21 18 -53 27 -53 5 0 7 -7 4 -16 -4 -10 -2 -13 6
-8 7 5 9 2 5 -9 -3 -9 0 -18 9 -21 8 -3 13 -11 12 -18 -2 -7 3 -12 11 -10 8 2
11 -3 8 -13 -4 -8 -2 -15 4 -15 6 0 8 -4 5 -9 -6 -8 35 -66 57 -82 5 -3 10
-15 11 -25 2 -10 8 -19 14 -19 6 0 14 -3 18 -8 4 -4 2 -7 -5 -7 -7 0 -9 -5 -6
-11 4 -6 14 -8 22 -5 8 3 11 1 8 -4 -4 -6 2 -7 12 -4 15 5 16 4 3 -5 -11 -8
-12 -11 -2 -11 7 0 10 -5 7 -11 -10 -15 -169 159 -257 282 -10 13 -36 49 -59
79 -82 111 -195 299 -280 465 -47 94 -90 181 -94 195 -4 14 -18 48 -30 75 -31
67 -125 349 -125 373 0 10 -3 22 -8 26 -4 4 -7 11 -7 14 -1 6 -13 63 -21 97
-10 44 -33 168 -38 200 -3 22 -8 51 -11 65 -16 75 -30 610 -17 634 3 5 6 32 8
60 1 28 5 69 8 91 6 39 13 94 21 165 3 19 7 46 10 60 3 14 8 39 11 55 4 25 22
106 40 178 2 9 6 27 9 40 20 94 109 353 164 480 11 26 21 51 22 55 1 4 11 25
22 47 12 22 21 42 22 45 1 15 132 247 180 320 30 47 58 93 61 103 4 9 10 17
14 17 3 0 27 29 51 65 24 36 47 65 51 65 5 0 8 5 8 10 0 6 8 18 18 28 9 10 35
40 57 67 57 69 279 291 350 350 33 27 68 56 77 64 42 39 219 163 308 217 36
21 67 41 70 44 19 21 324 170 451 221 187 75 470 160 639 193 14 2 48 9 77 15
29 6 74 13 100 17 26 3 50 8 52 10 2 2 17 4 33 4 l29 0 -57 -67z m-964 -2817
c0 -3 -4 -8 -10 -11 -5 -3 -10 -1 -10 4 0 6 5 11 10 11 6 0 10 -2 10 -4z m91
-423 c13 -16 12 -17 -3 -4 -10 7 -18 15 -18 17 0 8 8 3 21 -13z m3139 -443 c0
-5 -5 -10 -11 -10 -5 0 -7 5 -4 10 3 6 8 10 11 10 2 0 4 -4 4 -10z m-4596 -18
c3 -5 -1 -9 -9 -9 -8 0 -12 4 -9 9 3 4 7 8 9 8 2 0 6 -4 9 -8z m5516 -36 c0
-3 -4 -8 -10 -11 -5 -3 -10 -1 -10 4 0 6 5 11 10 11 6 0 10 -2 10 -4z m-5526
-44 c3 -5 -1 -9 -9 -9 -8 0 -12 4 -9 9 3 4 7 8 9 8 2 0 6 -4 9 -8z m4600 0 c3
-5 -1 -9 -9 -9 -8 0 -12 4 -9 9 3 4 7 8 9 8 2 0 6 -4 9 -8z m81 -1 c3 -5 2
-12 -3 -15 -5 -3 -9 1 -9 9 0 17 3 19 12 6z m-75 -41 c0 -5 -5 -10 -11 -10 -5
0 -7 5 -4 10 3 6 8 10 11 10 2 0 4 -4 4 -10z m60 0 c0 -5 -2 -10 -4 -10 -3 0
-8 5 -11 10 -3 6 -1 10 4 10 6 0 11 -4 11 -10z m890 -14 c0 -2 -8 -10 -17 -17
-16 -13 -17 -12 -4 4 13 16 21 21 21 13z m-5573 -21 c0 -8 -4 -12 -9 -9 -5 3
-6 10 -3 15 9 13 12 11 12 -6z m5573 -61 c0 -8 -19 -13 -24 -6 -3 5 1 9 9 9 8
0 15 -2 15 -3z m-5560 -38 c0 -2 -8 -10 -17 -17 -16 -13 -17 -12 -4 4 13 16
21 21 21 13z m-13 -51 c0 -8 -4 -12 -9 -9 -5 3 -6 10 -3 15 9 13 12 11 12 -6z
m5587 -53 c3 -5 -1 -9 -9 -9 -8 0 -12 4 -9 9 3 4 7 8 9 8 2 0 6 -4 9 -8z m16
-47 c0 -2 -9 -3 -19 -2 -11 0 -18 5 -15 9 4 6 34 0 34 -7z m-3 -47 c4 -28 -6
-18 -12 12 -2 12 -1 20 2 16 4 -4 8 -16 10 -28z m-5599 -13 c-3 -3 -9 2 -12
12 -6 14 -5 15 5 6 7 -7 10 -15 7 -18z m4619 10 c0 -8 -4 -15 -9 -15 -10 0
-11 14 -1 23 9 10 10 9 10 -8z m-17 -45 c0 -5 -5 -10 -11 -10 -5 0 -7 5 -4 10
3 6 8 10 11 10 2 0 4 -4 4 -10z m1004 -38 c3 -5 -1 -9 -9 -9 -8 0 -12 4 -9 9
3 4 7 8 9 8 2 0 6 -4 9 -8z m-1007 -47 c0 -8 -4 -12 -9 -9 -4 3 -8 9 -8 15 0
5 4 9 8 9 5 0 9 -7 9 -15z m-4602 -14 c3 -5 2 -12 -3 -15 -5 -3 -9 1 -9 9 0
17 3 19 12 6z m5596 -48 c12 -16 12 -17 -2 -6 -9 7 -20 9 -24 5 -5 -4 -5 -1
-1 6 9 16 11 15 27 -5z m-1020 -26 c-10 -9 -11 -8 -5 6 3 10 9 15 12 12 3 -3
0 -11 -7 -18z m-4569 -4 c-6 -3 -9 -10 -5 -16 5 -8 2 -8 -9 0 -8 7 -19 9 -23
5 -5 -4 -6 -2 -2 3 3 6 16 11 29 12 13 0 17 -1 10 -4z m5575 -18 c0 -8 -4 -12
-8 -9 -4 2 -10 0 -14 -6 -3 -5 -1 -10 6 -10 7 0 10 -3 6 -6 -3 -3 -11 -3 -17
1 -8 5 -6 13 6 26 21 23 21 23 21 4z m-5572 -45 c3 -6 -1 -7 -9 -4 -18 7 -21
14 -7 14 6 0 13 -4 16 -10z m-15 -35 c-7 -9 -15 -13 -19 -10 -3 3 1 10 9 15
21 14 24 12 10 -5z m5576 -53 c0 -10 -6 -19 -13 -19 -8 0 -9 6 -2 19 5 10 11
18 12 18 2 0 3 -8 3 -18z m-21 -112 c3 -6 -1 -7 -9 -4 -18 7 -21 14 -7 14 6 0
13 -4 16 -10z m-9 -22 c4 -7 3 -8 -4 -4 -7 4 -12 2 -12 -5 0 -7 -3 -10 -6 -6
-6 5 3 27 11 27 2 0 7 -5 11 -12z m-5480 -56 c-2 -9 2 -21 8 -25 7 -6 6 -7 -4
-4 -8 2 -14 10 -12 16 3 15 -15 14 -21 -1 -4 -10 -6 -10 -6 0 -1 7 6 15 14 18
8 4 12 11 8 17 -3 5 -1 7 5 4 5 -4 9 -15 8 -25z m5464 18 c0 -5 -5 -10 -11
-10 -5 0 -7 5 -4 10 3 6 8 10 11 10 2 0 4 -4 4 -10z m20 -40 c0 -5 -2 -10 -4
-10 -3 0 -8 5 -11 10 -3 6 -1 10 4 10 6 0 11 -4 11 -10z m-13 -25 c5 -4 2 -5
-5 -1 -7 4 -15 1 -18 -8 -3 -9 -11 -16 -16 -16 -6 0 -6 6 1 14 9 11 9 15 -1
19 -7 3 -3 5 9 3 12 -1 26 -6 30 -11z m-5447 -55 c0 -5 -5 -10 -11 -10 -5 0
-7 -4 -4 -10 3 -5 1 -10 -4 -10 -13 0 -13 3 -5 24 7 18 24 22 24 6z m5421 -13
c-10 -9 -11 -8 -5 6 3 10 9 15 12 12 3 -3 0 -11 -7 -18z m-1 -26 c0 -5 -7 -12
-16 -15 -14 -5 -15 -4 -4 9 14 17 20 19 20 6z m-5420 -56 c0 -8 -2 -15 -4 -15
-2 0 -6 7 -10 15 -3 8 -1 15 4 15 6 0 10 -7 10 -15z m37 -11 c0 -7 -6 -10 -14
-7 -7 3 -13 8 -13 12 0 4 6 8 13 8 8 0 14 -6 14 -13z m3 -24 c4 0 10 -7 14
-15 4 -13 1 -12 -22 2 -36 23 -41 28 -19 20 10 -4 22 -7 27 -7z m5326 -35 c1
-16 -3 -28 -12 -32 -8 -3 -11 -10 -7 -17 4 -6 -1 -5 -10 3 -18 15 -14 33 6 25
7 -2 13 4 14 16 1 11 -2 20 -8 20 -5 0 -9 -5 -9 -12 0 -6 -3 -8 -6 -5 -4 4 -1
13 6 22 16 19 22 14 26 -20z m-5312 -29 c-6 -17 -4 -19 7 -9 12 10 15 8 16
-10 2 -18 0 -19 -8 -7 -8 12 -9 11 -7 -5 2 -11 10 -20 18 -20 10 0 14 -9 12
-25 -1 -13 1 -21 4 -17 4 4 13 2 20 -4 11 -9 10 -15 -3 -35 -14 -22 -14 -24 1
-24 10 0 14 5 11 10 -3 6 -1 10 5 10 7 0 9 -8 5 -21 -5 -14 -3 -19 3 -15 6 4
16 -3 22 -14 6 -11 7 -20 3 -19 -20 3 -27 -2 -13 -11 8 -5 11 -12 7 -16 -12
-12 -22 8 -26 49 -1 5 -6 5 -13 1 -6 -4 -8 -3 -5 3 4 6 0 13 -8 17 -8 3 -12
12 -9 20 3 8 0 17 -5 21 -6 3 -9 11 -6 16 4 5 1 9 -4 9 -6 0 -10 3 -10 8 3 20
-2 32 -13 26 -7 -4 -8 -3 -4 4 4 7 3 12 -3 12 -6 0 -8 7 -5 15 4 9 -1 18 -12
22 -16 6 -16 7 2 14 18 7 18 8 -3 15 -13 3 -23 10 -23 15 0 5 11 3 25 -3 19
-9 24 -16 19 -32z m131 -244 c0 -9 6 -16 13 -14 6 1 11 -1 10 -5 -1 -5 3 -18
10 -30 7 -13 10 -23 8 -23 -3 0 6 -11 20 -25 14 -14 23 -29 20 -34 -3 -5 1
-12 10 -15 9 -4 14 -9 10 -13 -3 -3 3 -12 14 -20 11 -8 20 -21 20 -29 0 -8 5
-12 10 -9 6 4 10 3 9 -2 -3 -19 2 -34 9 -29 5 3 15 -6 22 -19 7 -14 17 -25 22
-25 4 0 8 -5 8 -11 0 -5 -4 -8 -8 -5 -4 2 -14 1 -21 -3 -9 -6 -10 -11 -2 -15
6 -4 11 -3 11 1 0 12 38 14 45 3 3 -5 0 -12 -6 -16 -7 -4 -9 -3 -6 4 5 6 -1 8
-15 4 l-22 -5 23 -9 c12 -4 19 -12 16 -18 -3 -6 -26 9 -51 32 -37 34 -44 47
-40 70 3 20 -1 31 -14 38 -9 5 -21 6 -25 2 -5 -4 -5 -2 -2 4 8 14 -17 37 -28
26 -5 -4 -5 -2 -1 5 4 7 -8 29 -28 51 -20 22 -33 42 -29 46 3 3 0 6 -7 6 -9 0
-7 5 6 15 12 10 14 14 4 12 -8 -2 -12 -2 -7 0 4 3 7 9 7 14 0 6 -4 8 -9 4 -5
-3 -12 -1 -16 5 -4 6 -10 8 -15 5 -4 -3 -7 3 -6 12 2 9 8 19 14 21 7 2 9 9 5
15 -3 7 -2 8 3 4 5 -5 9 -16 9 -25z m5065 -16 c0 -2 -8 -10 -17 -17 -16 -13
-17 -12 -4 4 13 16 21 21 21 13z m-90 -160 c0 -2 -7 -9 -15 -16 -13 -11 -14
-10 -9 4 5 14 24 23 24 12z m-4723 -179 c-3 -8 -1 -20 5 -28 8 -11 9 -10 4 4
-4 12 -2 17 6 14 7 -2 12 -9 11 -15 -2 -6 6 -14 17 -17 11 -4 17 -12 13 -21
-6 -17 -29 -19 -39 -2 -4 6 -3 8 4 4 6 -3 14 -2 17 4 4 6 3 9 -2 8 -4 -1 -18
1 -30 6 -16 5 -22 14 -21 32 1 13 6 24 11 24 5 0 7 -6 4 -13z m89 -84 c4 -10
7 -21 6 -25 -1 -4 5 -5 13 -2 9 4 15 0 15 -9 0 -26 -14 -27 -39 -1 -13 13 -28
24 -33 24 -6 0 -5 6 2 15 16 20 26 19 36 -2z m75 -63 c4 0 5 -7 2 -17 -4 -11
-3 -14 6 -9 7 5 20 1 29 -7 9 -9 29 -27 45 -41 15 -14 31 -27 35 -28 4 -2 6
-7 4 -11 -1 -5 2 -6 8 -2 6 4 33 -17 60 -45 28 -29 50 -49 50 -46 0 4 12 -5
28 -19 15 -14 50 -40 77 -58 28 -17 52 -34 55 -37 3 -3 17 -11 33 -19 15 -8
27 -18 27 -23 0 -4 9 -8 20 -8 11 0 20 -5 20 -12 0 -6 3 -9 6 -5 3 3 15 -3 27
-13 11 -11 24 -17 29 -14 4 3 8 1 8 -4 0 -4 16 -14 35 -22 19 -8 35 -17 35
-22 0 -11 -14 -10 -25 1 -6 6 -37 24 -70 41 -75 40 -159 92 -163 102 -2 5 -8
8 -14 8 -5 0 -30 15 -56 32 -26 18 -50 32 -54 30 -5 -1 -7 3 -5 10 1 7 -3 12
-10 13 -7 0 -21 7 -31 16 -11 9 -35 27 -55 41 -20 14 -34 28 -30 31 3 4 -1 7
-10 7 -9 0 -17 5 -17 10 0 6 -7 10 -15 10 -9 0 -20 10 -25 23 -5 12 -9 18 -9
13 -1 -6 -8 -1 -17 10 -8 10 -13 12 -9 4 4 -10 2 -9 -8 2 -8 10 -16 15 -20 12
-3 -3 -8 4 -12 15 -3 12 -11 19 -16 16 -5 -4 -9 1 -9 10 0 12 5 15 16 11 9 -3
20 -6 25 -6z m4159 -160 c-13 -24 -65 -61 -74 -53 -3 3 -6 2 -6 -3 0 -6 -15
-21 -32 -34 l-33 -24 30 36 c17 20 36 37 43 37 6 1 12 6 12 11 0 15 53 59 62
53 5 -2 4 -13 -2 -23z m-3400 -361 c0 -8 -97 39 -105 51 -3 5 19 -3 50 -18 30
-15 55 -29 55 -33z m177 -73 c4 -4 -11 0 -33 8 -59 21 -134 55 -134 60 0 5
158 -59 167 -68z m78 -26 c3 -5 1 -10 -4 -10 -6 0 -11 5 -11 10 0 6 2 10 4 10
3 0 8 -4 11 -10z m105 -40 c0 -5 -7 -7 -15 -4 -8 4 -15 8 -15 10 0 2 7 4 15 4
8 0 15 -4 15 -10z"/>
<path d="M1506 2535 c7 -17 20 -20 28 -6 3 5 -1 12 -10 15 -22 9 -24 8 -18 -9z"/>
<path d="M1666 2201 c-4 -5 -2 -12 3 -15 5 -4 12 -2 15 3 4 5 2 12 -3 15 -5 4
-12 2 -15 -3z"/>
<path d="M1730 2056 c0 -2 8 -10 18 -17 15 -13 16 -12 3 4 -13 16 -21 21 -21
13z"/>
<path d="M1777 1993 c-8 -17 0 -31 42 -78 24 -28 38 -42 31 -32 -7 9 -9 17 -4
17 5 0 1 5 -9 11 -9 6 -14 15 -11 21 5 7 2 8 -6 3 -10 -6 -12 -4 -7 8 4 11 -1
20 -14 27 -11 6 -17 15 -14 21 4 5 4 9 1 9 -3 0 -7 -3 -9 -7z m28 -41 c-3 -3
-11 0 -18 7 -9 10 -8 11 6 5 10 -3 15 -9 12 -12z"/>
<path d="M1907 1793 c-10 -10 -8 -23 4 -23 5 0 7 5 4 10 -10 17 7 11 22 -7 13
-16 13 -16 3 5 -11 22 -21 27 -33 15z"/>
<path d="M6885 2253 c-5 -10 -9 -23 -11 -30 -3 -16 23 -24 34 -10 11 15 26 54
16 44 -4 -4 -13 -2 -19 3 -9 8 -15 5 -20 -7z m18 -29 c-4 -12 -8 -13 -14 -3
-9 15 -2 32 11 24 5 -3 6 -13 3 -21z"/>
<path d="M6825 2129 c-4 -6 -5 -12 -2 -15 2 -3 7 2 10 11 7 17 1 20 -8 4z"/>
<path d="M6795 2080 c-3 -5 -3 -10 1 -10 4 0 -3 -12 -17 -27 l-24 -28 26 23
c14 12 26 29 26 37 0 18 -3 19 -12 5z"/>
<path d="M6725 1951 c-3 -5 -2 -12 3 -15 5 -3 9 1 9 9 0 17 -3 19 -12 6z"/>
<path d="M6490 1605 c0 -8 2 -15 4 -15 2 0 6 7 10 15 3 8 1 15 -4 15 -6 0 -10
-7 -10 -15z"/>
<path d="M6462 1577 c-19 -25 -23 -41 -4 -18 18 22 20 23 29 6 6 -10 13 -13
16 -8 9 15 -29 35 -41 20z"/>
<path d="M6420 1520 c-9 -6 -10 -10 -3 -10 6 0 15 5 18 10 8 12 4 12 -15 0z"/>
<path d="M6395 1490 c3 -5 8 -10 11 -10 2 0 4 5 4 10 0 6 -5 10 -11 10 -5 0
-7 -4 -4 -10z"/>
</g>
</svg>
